<svg xmlns="http://www.w3.org/2000/svg" viewBox="0 0 34.15 34.14"><defs><style>.cls-1{fill:#874aaf;}</style></defs><g id="Capa_2" data-name="Capa 2"><g id="Capa_1-2" data-name="Capa 1"><path class="cls-1" d="M2.72,34.13a2.79,2.79,0,0,1-2-.7A2.83,2.83,0,0,1,0,31.38V25.2C0,22.57,0,20,0,17.32c0-.94.42-1.2.73-1.32a1.33,1.33,0,0,1,.43-.07,1.17,1.17,0,0,1,1.09,1.3c0,3,0,6,0,9v5.66H31.89V17.35c0-.53.15-1.41,1.13-1.41s1.13,1.08,1.13,1.41v2.48c0,3.86,0,7.72,0,11.58,0,1.85-.88,2.71-2.74,2.71l-17.48,0Z"/><path class="cls-1" d="M17.06,26.79a1.29,1.29,0,0,1-.88-.45Q12.79,23,9.43,19.59a1.18,1.18,0,0,1-.08-1.68,1.06,1.06,0,0,1,.75-.33,1.4,1.4,0,0,1,1,.44L13,19.91,14.07,21l.39.35L16,22.7V14.33q0-6.48,0-13C16,1,16.07,0,17.07,0c.71,0,1.12.49,1.12,1.31q0,3.47,0,6.94v12.1c0,.15,0,.31,0,.52l0,.34.16,1.49,2-2.07c.82-.83,1.6-1.62,2.39-2.38a2.63,2.63,0,0,1,1-.64.59.59,0,0,1,.23,0,1.07,1.07,0,0,1,.87.54,1.17,1.17,0,0,1-.2,1.44c-1.16,1.19-2.34,2.36-3.52,3.54l-1.75,1.75c-.49.49-1,1-1.47,1.46A1.44,1.44,0,0,1,17.06,26.79Z"/></g></g></svg>