<svg xmlns="http://www.w3.org/2000/svg" viewBox="0 0 43.54 41.71"><defs><style>.cls-1{fill:#874aaf;}</style></defs><g id="Capa_2" data-name="Capa 2"><g id="Capa_1-2" data-name="Capa 1"><path class="cls-1" d="M10.05,39.46C7.18,36.6,4.3,33.74,1.44,30.87-.49,29-.47,28,1.45,26.1L26,1.53c2-2,2.88-2,4.88,0Q36.64,7.24,42.37,13c1.54,1.54,1.55,2.65,0,4.17Q30.68,28.9,18.91,40.62a3.48,3.48,0,0,1-2.14,1c-5.28.09-10.55.05-15.83,0-.27,0-.54-.06-.87-.09V39.86H9.91Zm3.6-23.07c-3.66,3.68-7.31,7.42-11,11.08-.88.86-.73,1.34.07,2.11,3.07,3,6.08,6.06,9.12,9.09a4.77,4.77,0,0,0,6.58-.05C20.59,36.41,22.79,34.18,25,32c.73-.71,1.55-1.32,2.28-1.93Z"/></g></g></svg>