<svg xmlns="http://www.w3.org/2000/svg" viewBox="0 0 381.37 125.96"><defs><style>.cls-1{fill:#211f1f;}.cls-2{fill:#874aaf;}</style></defs><g id="Capa_2" data-name="Capa 2"><g id="Capa_1-2" data-name="Capa 1"><path class="cls-1" d="M30.05,24.79a26.55,26.55,0,0,1,12.9-3A29,29,0,0,1,58.6,26.17,30.32,30.32,0,0,1,69.68,38.69,41.82,41.82,0,0,1,73.75,57.6a42.2,42.2,0,0,1-4.07,19A30.73,30.73,0,0,1,58.6,89.21,28.58,28.58,0,0,1,43,93.66a26.56,26.56,0,0,1-12.84-3,23.56,23.56,0,0,1-8.7-7.76V126H0V22.79H21.41v9.89A23.23,23.23,0,0,1,30.05,24.79ZM47.52,45a14.73,14.73,0,0,0-11-4.57,14.43,14.43,0,0,0-10.83,4.64q-4.44,4.62-4.44,12.64t4.44,12.65A14.42,14.42,0,0,0,36.56,75a14.53,14.53,0,0,0,10.89-4.69Q52,65.62,52,57.6T47.52,45Z"/><path class="cls-1" d="M106.43,0V92.66H85V0Z"/><path class="cls-1" d="M121.77,38.69a30.25,30.25,0,0,1,11.08-12.52,28.92,28.92,0,0,1,15.65-4.38,27,27,0,0,1,13,3A22.07,22.07,0,0,1,170,32.68V22.79h21.41V92.66H170v-9.9a23,23,0,0,1-8.7,7.89,26.79,26.79,0,0,1-13,3,28.32,28.32,0,0,1-15.52-4.45,30.66,30.66,0,0,1-11.08-12.64,42.07,42.07,0,0,1-4.07-19A41.69,41.69,0,0,1,121.77,38.69Zm43.82,6.39A15,15,0,0,0,143.93,45q-4.45,4.58-4.45,12.59t4.45,12.71a14.91,14.91,0,0,0,21.66.06Q170,65.74,170,57.72T165.59,45.08Z"/><path class="cls-1" d="M229.32,75h30.3V92.66H205.41v-17l29.05-35.19h-28.8V22.79H259v17Z"/><path class="cls-1" d="M268.88,38.69A30.32,30.32,0,0,1,280,26.17a29,29,0,0,1,15.65-4.38,26.9,26.9,0,0,1,13,3,22,22,0,0,1,8.58,7.89V22.79h21.41V92.66H317.15v-9.9a23.11,23.11,0,0,1-8.7,7.89,26.84,26.84,0,0,1-13,3A28.37,28.37,0,0,1,280,89.21a30.73,30.73,0,0,1-11.08-12.64,42.2,42.2,0,0,1-4.07-19A41.82,41.82,0,0,1,268.88,38.69Zm43.83,6.39A15,15,0,0,0,291,45q-4.44,4.58-4.44,12.59T291,70.31a14.93,14.93,0,0,0,21.67.06q4.44-4.64,4.44-12.65T312.71,45.08Z"/><path class="cls-2" d="M364.93,59a14.53,14.53,0,0,0-10.83,4.57q-4.44,4.57-4.44,12.58t4.44,12.71a14.89,14.89,0,0,0,21.66.06q4.46-4.62,4.45-12.64t-4.45-12.65A14.42,14.42,0,0,0,364.93,59Z"/><path class="cls-1" d="M364.93,94.74a15.5,15.5,0,0,1-11.67-5.06c-3.16-3.34-4.76-7.88-4.76-13.51s1.6-10.13,4.77-13.39a16.21,16.21,0,0,1,23.33.07c3.17,3.3,4.77,7.82,4.77,13.45s-1.61,10.15-4.77,13.45A15.63,15.63,0,0,1,364.93,94.74Zm0-34.56a13.32,13.32,0,0,0-10,4.22c-2.73,2.81-4.11,6.77-4.11,11.77s1.39,9,4.12,11.91a13.74,13.74,0,0,0,20,.06c2.73-2.85,4.12-6.84,4.12-11.84s-1.39-9-4.13-11.85A13.23,13.23,0,0,0,364.93,60.18Z"/></g></g></svg>